<svg width="38" height="38" viewBox="0 0 38 38" fill="none" xmlns="http://www.w3.org/2000/svg">
<g opacity="0.56">
<path fill-rule="evenodd" clip-rule="evenodd" d="M11.8193 1.688C13.6765 1.6025 14.2687 1.5835 18.9997 1.5835C23.7307 1.5835 24.3228 1.60408 26.1785 1.688C28.0342 1.77191 29.3008 2.068 30.4092 2.49708C31.5697 2.93566 32.6227 3.62125 33.4935 4.50791C34.3802 5.37716 35.0642 6.42849 35.5012 7.59066C35.9318 8.69899 36.2263 9.96566 36.3118 11.8182C36.3973 13.6786 36.4163 14.2707 36.4163 19.0002C36.4163 23.7312 36.3957 24.3233 36.3118 26.1806C36.2279 28.0331 35.9318 29.2997 35.5012 30.4081C35.0642 31.5704 34.379 32.6235 33.4935 33.494C32.6227 34.3807 31.5697 35.0647 30.4092 35.5017C29.3008 35.9323 28.0342 36.2268 26.1817 36.3123C24.3228 36.3978 23.7307 36.4168 18.9997 36.4168C14.2687 36.4168 13.6765 36.3962 11.8193 36.3123C9.96676 36.2284 8.70009 35.9323 7.59176 35.5017C6.42946 35.0646 5.37639 34.3795 4.50584 33.494C3.61978 32.6242 2.93409 31.5716 2.49659 30.4097C2.06751 29.3013 1.77301 28.0347 1.68751 26.1822C1.60201 24.3217 1.58301 23.7296 1.58301 19.0002C1.58301 14.2692 1.60359 13.677 1.68751 11.8213C1.77142 9.96566 2.06751 8.69899 2.49659 7.59066C2.93474 6.42862 3.62095 5.37607 4.50742 4.50633C5.37674 3.62046 6.42875 2.93478 7.59017 2.49708C8.69851 2.068 9.96517 1.7735 11.8177 1.688H11.8193ZM26.0376 4.823C24.2009 4.73908 23.6499 4.72166 18.9997 4.72166C14.3494 4.72166 13.7984 4.73908 11.9618 4.823C10.2628 4.90058 9.34134 5.184 8.72701 5.42308C7.91476 5.73974 7.33367 6.115 6.72409 6.72458C6.14624 7.28674 5.70154 7.97111 5.42259 8.72749C5.18351 9.34183 4.90009 10.2633 4.82251 11.9622C4.73859 13.7989 4.72117 14.3499 4.72117 19.0002C4.72117 23.6504 4.73859 24.2014 4.82251 26.0381C4.90009 27.737 5.18351 28.6585 5.42259 29.2728C5.70126 30.0281 6.14617 30.7137 6.72409 31.2757C7.28617 31.8537 7.97176 32.2986 8.72701 32.5772C9.34134 32.8163 10.2628 33.0997 11.9618 33.1773C13.7984 33.2612 14.3478 33.2787 18.9997 33.2787C23.6515 33.2787 24.2009 33.2612 26.0376 33.1773C27.7365 33.0997 28.658 32.8163 29.2723 32.5772C30.0846 32.2606 30.6657 31.8853 31.2752 31.2757C31.8532 30.7137 32.2981 30.0281 32.5767 29.2728C32.8158 28.6585 33.0993 27.737 33.1768 26.0381C33.2607 24.2014 33.2782 23.6504 33.2782 19.0002C33.2782 14.3499 33.2607 13.7989 33.1768 11.9622C33.0993 10.2633 32.8158 9.34183 32.5767 8.72749C32.2601 7.91524 31.8848 7.33416 31.2752 6.72458C30.7131 6.14677 30.0287 5.70208 29.2723 5.42308C28.658 5.184 27.7365 4.90058 26.0376 4.823ZM16.7751 24.3692C18.0175 24.8864 19.4009 24.9562 20.689 24.5667C21.9771 24.1772 23.09 23.3526 23.8377 22.2337C24.5854 21.1148 24.9214 19.771 24.7884 18.4319C24.6554 17.0928 24.0616 15.8414 23.1084 14.8914C22.5008 14.2842 21.7661 13.8192 20.9572 13.53C20.1483 13.2408 19.2853 13.1345 18.4305 13.2188C17.5756 13.3031 16.75 13.5759 16.0132 14.0176C15.2764 14.4593 14.6467 15.0588 14.1694 15.7731C13.6921 16.4873 13.3791 17.2985 13.253 18.1483C13.1268 18.998 13.1907 19.8651 13.4399 20.6872C13.6891 21.5093 14.1174 22.266 14.6941 22.9026C15.2709 23.5393 15.9816 24.0402 16.7751 24.3692ZM12.6695 12.67C13.5008 11.8387 14.4877 11.1793 15.5738 10.7294C16.6599 10.2795 17.824 10.048 18.9997 10.048C20.1753 10.048 21.3394 10.2795 22.4255 10.7294C23.5117 11.1793 24.4985 11.8387 25.3298 12.67C26.1611 13.5013 26.8205 14.4882 27.2704 15.5743C27.7203 16.6604 27.9519 17.8245 27.9519 19.0002C27.9519 20.1758 27.7203 21.3399 27.2704 22.426C26.8205 23.5121 26.1611 24.499 25.3298 25.3303C23.651 27.0092 21.3739 27.9524 18.9997 27.9524C16.6254 27.9524 14.3484 27.0092 12.6695 25.3303C10.9906 23.6515 10.0475 21.3744 10.0475 19.0002C10.0475 16.6259 10.9906 14.3489 12.6695 12.67ZM29.9373 11.3812C30.1433 11.1868 30.3082 10.9532 30.4223 10.694C30.5364 10.4347 30.5973 10.1553 30.6014 9.87213C30.6055 9.58897 30.5528 9.30786 30.4463 9.04544C30.3399 8.78303 30.1819 8.54464 29.9816 8.34439C29.7814 8.14414 29.543 7.98611 29.2806 7.87965C29.0181 7.77318 28.737 7.72046 28.4539 7.72458C28.1707 7.72871 27.8912 7.78961 27.632 7.90368C27.3728 8.01775 27.1392 8.18266 26.9448 8.38866C26.5669 8.78929 26.36 9.32144 26.368 9.87213C26.3761 10.4228 26.5984 10.9487 26.9878 11.3382C27.3773 11.7276 27.9032 11.9499 28.4539 11.958C29.0046 11.966 29.5367 11.7591 29.9373 11.3812Z" fill="#14445D"/>
</g>
</svg>
