<svg width="15" height="26" viewBox="0 0 15 26" fill="none" xmlns="http://www.w3.org/2000/svg">
<path d="M14.16 0.986716C14.0052 0.831505 13.8213 0.708363 13.6188 0.624341C13.4163 0.54032 13.1992 0.49707 12.98 0.49707C12.7608 0.49707 12.5437 0.54032 12.3412 0.624341C12.1387 0.708363 11.9548 0.831505 11.8 0.986716L0.720004 12.0667C0.596399 12.1901 0.498336 12.3366 0.431427 12.4979C0.364518 12.6592 0.330078 12.8321 0.330078 13.0067C0.330078 13.1813 0.364518 13.3543 0.431427 13.5155C0.498336 13.6768 0.596399 13.8234 0.720004 13.9467L11.8 25.0267C12.4533 25.6801 13.5067 25.6801 14.16 25.0267C14.8133 24.3734 14.8133 23.3201 14.16 22.6667L4.50667 13L14.1733 3.33338C14.8133 2.69338 14.8133 1.62672 14.16 0.986716Z" fill="#FA8A00"/>
</svg>
