<svg width="33" height="33" viewBox="0 0 33 33" fill="none" xmlns="http://www.w3.org/2000/svg">
<g opacity="0.56" clip-path="url(#clip0_144_1398)">
<path d="M5.94735 0C2.65278 0 0 2.65278 0 5.94735V26.6241C0 29.9187 2.65278 32.5715 5.94735 32.5715H17.154V19.8381H13.7869V15.2536H17.154V11.3369C17.154 8.25972 19.1434 5.43435 23.7263 5.43435C25.5818 5.43435 26.9539 5.61248 26.9539 5.61248L26.846 9.89361C26.846 9.89361 25.4466 9.88038 23.9196 9.88038C22.267 9.88038 22.002 10.6418 22.002 11.9059V15.2537H26.9773L26.7605 19.8381H22.002V32.5715H26.6241C29.9187 32.5715 32.5714 29.9187 32.5714 26.6241V5.94738C32.5714 2.65281 29.9187 3.25714e-05 26.6241 3.25714e-05H5.94732L5.94735 0Z" fill="#14445D"/>
</g>
<defs>
<clipPath id="clip0_144_1398">
<rect width="32.5714" height="32.5714" fill="white"/>
</clipPath>
</defs>
</svg>
