<svg width="40" height="40" viewBox="0 0 40 40" fill="none" xmlns="http://www.w3.org/2000/svg">
<path d="M37 6.66699H25V40.0002H39.6666V9.33365C39.6666 8.62641 39.3857 7.94813 38.8856 7.44804C38.3855 6.94794 37.7072 6.66699 37 6.66699ZM30.3333 29.3336H27.6667V26.6669H30.3333V29.3336ZM30.3333 22.6669H27.6667V20.0003H30.3333V22.6669ZM30.3333 16.0003H27.6667V13.3336H30.3333V16.0003ZM35.6666 29.3336H33V26.6669H35.6666V29.3336ZM35.6666 22.6669H33V20.0003H35.6666V22.6669ZM35.6666 16.0003H33V13.3336H35.6666V16.0003Z" fill="#14445D"/>
<path d="M19.5066 0H3.82666C3.07698 0 2.35801 0.297808 1.82791 0.827909C1.29781 1.35801 1 2.07698 1 2.82666V39.9999H7.66665V35.9999H15.6666V39.9999H22.3333V2.82666C22.3333 2.07698 22.0355 1.35801 21.5054 0.827909C20.9753 0.297808 20.2563 0 19.5066 0ZM7.66665 29.3332H4.99999V26.6666H7.66665V29.3332ZM7.66665 22.6666H4.99999V19.9999H7.66665V22.6666ZM7.66665 15.9999H4.99999V13.3333H7.66665V15.9999ZM7.66665 9.3333H4.99999V6.66665H7.66665V9.3333ZM13 29.3332H10.3333V26.6666H13V29.3332ZM13 22.6666H10.3333V19.9999H13V22.6666ZM13 15.9999H10.3333V13.3333H13V15.9999ZM13 9.3333H10.3333V6.66665H13V9.3333ZM18.3333 29.3332H15.6666V26.6666H18.3333V29.3332ZM18.3333 22.6666H15.6666V19.9999H18.3333V22.6666ZM18.3333 15.9999H15.6666V13.3333H18.3333V15.9999ZM18.3333 9.3333H15.6666V6.66665H18.3333V9.3333Z" fill="#14445D"/>
</svg>
