<svg width="40" height="40" viewBox="0 0 40 40" fill="none" xmlns="http://www.w3.org/2000/svg">
<path d="M36.9999 6.66602H24.9999V39.9992H39.6665V9.33267C39.6665 8.62543 39.3856 7.94716 38.8855 7.44706C38.3854 6.94697 37.7071 6.66602 36.9999 6.66602ZM30.3332 29.3326H27.6666V26.666H30.3332V29.3326ZM30.3332 22.666H27.6666V19.9993H30.3332V22.666ZM30.3332 15.9993H27.6666V13.3327H30.3332V15.9993ZM35.6665 29.3326H32.9999V26.666H35.6665V29.3326ZM35.6665 22.666H32.9999V19.9993H35.6665V22.666ZM35.6665 15.9993H32.9999V13.3327H35.6665V15.9993Z" fill="#FA8A00"/>
<path d="M19.5066 0H3.82666C3.07698 0 2.35801 0.297808 1.82791 0.827909C1.29781 1.35801 1 2.07698 1 2.82666V39.9999H7.66665V35.9999H15.6666V39.9999H22.3333V2.82666C22.3333 2.07698 22.0355 1.35801 21.5054 0.827909C20.9753 0.297808 20.2563 0 19.5066 0ZM7.66665 29.3332H4.99999V26.6666H7.66665V29.3332ZM7.66665 22.6666H4.99999V19.9999H7.66665V22.6666ZM7.66665 15.9999H4.99999V13.3333H7.66665V15.9999ZM7.66665 9.3333H4.99999V6.66665H7.66665V9.3333ZM13 29.3332H10.3333V26.6666H13V29.3332ZM13 22.6666H10.3333V19.9999H13V22.6666ZM13 15.9999H10.3333V13.3333H13V15.9999ZM13 9.3333H10.3333V6.66665H13V9.3333ZM18.3333 29.3332H15.6666V26.6666H18.3333V29.3332ZM18.3333 22.6666H15.6666V19.9999H18.3333V22.6666ZM18.3333 15.9999H15.6666V13.3333H18.3333V15.9999ZM18.3333 9.3333H15.6666V6.66665H18.3333V9.3333Z" fill="#FA8A00"/>
</svg>
