<svg width="29" height="30" viewBox="0 0 29 30" fill="none" xmlns="http://www.w3.org/2000/svg">
<path d="M14.2361 3.27783C7.69453 3.27783 2.37256 8.59981 2.37256 15.1413C2.37256 21.6829 7.69453 27.0049 14.2361 27.0049C20.7776 27.0049 26.0996 21.6829 26.0996 15.1413C26.0996 8.59981 20.7776 3.27783 14.2361 3.27783ZM14.2361 24.6322C9.00308 24.6322 4.74526 20.3743 4.74526 15.1413C4.74526 9.90835 9.00308 5.65054 14.2361 5.65054C19.4691 5.65054 23.7269 9.90835 23.7269 15.1413C23.7269 20.3743 19.4691 24.6322 14.2361 24.6322Z" fill="#14445D"/>
<path d="M11.8625 17.0242L9.13509 14.3015L7.45996 15.9814L11.8649 20.3768L19.8206 12.4212L18.1431 10.7437L11.8625 17.0242Z" fill="#14445D"/>
</svg>
