<svg width="36" height="36" viewBox="0 0 36 36" fill="none" xmlns="http://www.w3.org/2000/svg">
<circle cx="18" cy="18" r="18" fill="#FA8A00"/>
<path d="M24.3575 11.4463C24.6512 11.1569 25.0422 10.9969 25.4478 11C25.8534 11.0032 26.2419 11.1693 26.5314 11.4634C26.8209 11.7574 26.9887 12.1563 26.9995 12.576C27.0102 12.9956 26.863 13.4031 26.5889 13.7126L18.2681 24.4826C18.125 24.6421 17.9523 24.7701 17.7603 24.859C17.5684 24.9478 17.3611 24.9957 17.1508 24.9997C16.9406 25.0038 16.7317 24.9639 16.5367 24.8824C16.3416 24.801 16.1645 24.6797 16.0158 24.5258L10.4978 18.8149C10.3441 18.6667 10.2209 18.488 10.1354 18.2894C10.0499 18.0908 10.0039 17.8765 10.0002 17.6591C9.99654 17.4418 10.0352 17.2259 10.1138 17.0243C10.1925 16.8228 10.3096 16.6397 10.4581 16.486C10.6066 16.3322 10.7835 16.2111 10.9783 16.1297C11.173 16.0482 11.3816 16.0083 11.5917 16.0121C11.8017 16.0159 12.0088 16.0635 12.2006 16.152C12.3925 16.2404 12.5652 16.368 12.7083 16.527L17.0752 21.0444L24.3179 11.4938C24.3309 11.4772 24.3448 11.4614 24.3596 11.4463H24.3575Z" fill="white"/>
</svg>
