<svg width="40" height="40" viewBox="0 0 40 40" fill="none" xmlns="http://www.w3.org/2000/svg">
<path d="M7.62454 7.62503C8.09336 7.15635 8.72913 6.89307 9.39204 6.89307C10.055 6.89307 10.6907 7.15635 11.1595 7.62503L19.9995 16.465L28.8395 7.62503C29.3111 7.16964 29.9426 6.91765 30.598 6.92335C31.2535 6.92904 31.8806 7.19197 32.3441 7.65549C32.8076 8.11901 33.0705 8.74604 33.0762 9.40153C33.0819 10.057 32.8299 10.6885 32.3745 11.16L23.5345 20L32.3745 28.84C32.8299 29.3115 33.0819 29.943 33.0762 30.5985C33.0705 31.254 32.8076 31.8811 32.3441 32.3446C31.8806 32.8081 31.2535 33.071 30.598 33.0767C29.9426 33.0824 29.3111 32.8304 28.8395 32.375L19.9995 23.535L11.1595 32.375C10.688 32.8304 10.0565 33.0824 9.40104 33.0767C8.74555 33.071 8.11852 32.8081 7.655 32.3446C7.19148 31.8811 6.92856 31.254 6.92286 30.5985C6.91716 29.943 7.16915 29.3115 7.62454 28.84L16.4645 20L7.62454 11.16C7.15587 10.6912 6.89258 10.0554 6.89258 9.39253C6.89258 8.72962 7.15587 8.09385 7.62454 7.62503Z" fill="#14445D"/>
</svg>
