<svg width="50" height="50" viewBox="0 0 50 50" fill="none" xmlns="http://www.w3.org/2000/svg">
<path d="M37.0473 20.5307C37.2924 19.7953 37.5376 19.0598 37.5376 18.0792C37.5376 12.686 33.125 8.27344 27.7318 8.27344C24.0546 8.27344 20.6226 10.4797 19.1517 13.6666C18.4163 13.4215 17.4357 13.1763 16.7003 13.1763C13.2682 13.1763 10.5716 15.8729 10.5716 19.305C10.5716 19.7953 10.5716 20.2855 10.8168 20.5307C6.40417 21.2661 3.21729 24.6982 3.21729 29.1108C3.21729 33.7685 7.13961 37.6908 11.7974 37.6908H20.3774V30.3365H13.0231L24.0546 19.305L35.0861 30.3365H27.7318V37.6908H36.3119C40.9696 37.6908 44.8919 33.7685 44.8919 29.1108C44.8919 24.6982 41.4599 21.021 37.0473 20.5307Z" fill="#14445D"/>
</svg>
