<svg width="30" height="40" viewBox="0 0 30 40" fill="none" xmlns="http://www.w3.org/2000/svg">
<path d="M18.2325 0H5C3.67392 0 2.40215 0.526784 1.46447 1.46447C0.526784 2.40215 0 3.67392 0 5V35C0 36.3261 0.526784 37.5979 1.46447 38.5355C2.40215 39.4732 3.67392 40 5 40H25C26.3261 40 27.5979 39.4732 28.5355 38.5355C29.4732 37.5979 30 36.3261 30 35V11.7675C29.9999 11.1045 29.7364 10.4687 29.2675 10L20 0.7325C19.5313 0.263627 18.8955 0.000141594 18.2325 0V0ZM18.75 8.75V3.75L26.25 11.25H21.25C20.587 11.25 19.9511 10.9866 19.4822 10.5178C19.0134 10.0489 18.75 9.41304 18.75 8.75ZM22.5 20C22.5 21.9891 21.7098 23.8968 20.3033 25.3033C18.8968 26.7098 16.9891 27.5 15 27.5C13.0109 27.5 11.1032 26.7098 9.6967 25.3033C8.29018 23.8968 7.5 21.9891 7.5 20C7.5 18.0109 8.29018 16.1032 9.6967 14.6967C11.1032 13.2902 13.0109 12.5 15 12.5C16.9891 12.5 18.8968 13.2902 20.3033 14.6967C21.7098 16.1032 22.5 18.0109 22.5 20ZM27.5 34.3875V35C27.5 35.663 27.2366 36.2989 26.7678 36.7678C26.2989 37.2366 25.663 37.5 25 37.5H5C4.33696 37.5 3.70107 37.2366 3.23223 36.7678C2.76339 36.2989 2.5 35.663 2.5 35V34.3875C2.5 34.3875 5 30 15 30C25 30 27.5 34.3875 27.5 34.3875Z" fill="#14445D"/>
</svg>
