<svg width="23" height="21" viewBox="0 0 23 21" fill="none" xmlns="http://www.w3.org/2000/svg">
<g clip-path="url(#clip0_143_2885)">
<path d="M22.1857 7.22594V10.9256C19.1014 12.0046 15.2704 12.6212 11.1473 12.6212C7.02411 12.6212 3.19314 12.0046 0.108887 10.9256V7.22594C0.108887 6.54768 0.693272 5.99273 1.40752 5.99273H6.76438V5.06783C6.76438 3.64964 7.99809 2.44727 9.52398 2.44727H12.7706C14.2965 2.44727 15.5302 3.64964 15.5302 5.06783V5.99273H20.887C21.6013 5.99273 22.1857 6.54768 22.1857 7.22594ZM8.38768 5.06783V5.99273H13.9069V5.06783C13.9069 4.48206 13.3874 3.98877 12.7706 3.98877H9.52398C8.90713 3.98877 8.38768 4.48206 8.38768 5.06783ZM9.52398 10.7098V11.3264C9.52398 11.5113 9.65384 11.6347 9.84864 11.6347H12.4459C12.6407 11.6347 12.7706 11.5113 12.7706 11.3264V10.7098C12.7706 10.5248 12.6407 10.4014 12.4459 10.4014H9.84864C9.65384 10.4014 9.52398 10.5248 9.52398 10.7098ZM0.108887 18.9722V12.2513C3.22561 13.2687 7.02411 13.8544 11.1473 13.8544C15.2704 13.8544 19.0689 13.2687 22.1857 12.2513V18.9722C22.1857 19.6505 21.6013 20.2054 20.887 20.2054H1.40752C0.693272 20.2054 0.108887 19.6505 0.108887 18.9722ZM12.7706 15.7967V15.1801C12.7706 14.9951 12.6407 14.8718 12.4459 14.8718H9.84864C9.65384 14.8718 9.52398 14.9951 9.52398 15.1801V15.7967C9.52398 15.9817 9.65384 16.105 9.84864 16.105H12.4459C12.6407 16.105 12.7706 15.9817 12.7706 15.7967Z" fill="#FA8A00"/>
</g>
<defs>
<clipPath id="clip0_143_2885">
<rect width="22.0768" height="19.793" fill="white" transform="translate(0.108887 0.412598)"/>
</clipPath>
</defs>
</svg>
