<svg width="40" height="40" viewBox="0 0 40 40" fill="none" xmlns="http://www.w3.org/2000/svg">
<path d="M19.5 40C21.7687 40 23.625 38.1538 23.625 35.8974H15.375C15.375 36.9855 15.8096 38.029 16.5832 38.7984C17.3568 39.5678 18.406 40 19.5 40ZM31.875 27.6923V17.4359C31.875 11.1385 28.4925 5.86667 22.5938 4.47179V3.07692C22.5938 1.37436 21.2119 0 19.5 0C17.7881 0 16.4062 1.37436 16.4062 3.07692V4.47179C10.4869 5.86667 7.125 11.1179 7.125 17.4359V27.6923L3 31.7949V33.8462H36V31.7949L31.875 27.6923Z" fill="#14445D"/>
</svg>
