<svg width="34" height="24" viewBox="0 0 34 24" fill="none" xmlns="http://www.w3.org/2000/svg">
<g opacity="0.56">
<path d="M16.9636 0H17.1511C18.8831 0.00632105 27.6588 0.0695319 30.025 0.705851C30.7403 0.900051 31.3921 1.27858 31.9153 1.80362C32.4385 2.32866 32.8147 2.98181 33.0064 3.69781C33.2192 4.49848 33.3688 5.55831 33.4699 6.65185L33.491 6.87098L33.5374 7.4188L33.5542 7.63793C33.6912 9.56374 33.708 11.3673 33.7101 11.7614V11.9194C33.708 12.3281 33.6891 14.254 33.5374 16.2598L33.5205 16.4811L33.5015 16.7002C33.3962 17.9054 33.2403 19.1022 33.0064 19.9829C32.8153 20.6992 32.4393 21.3527 31.916 21.8778C31.3927 22.4029 30.7406 22.7813 30.025 22.9749C27.5808 23.6323 18.291 23.6786 17.0036 23.6807H16.7044C16.0534 23.6807 13.3606 23.6681 10.5372 23.5712L10.179 23.5585L9.99568 23.5501L9.63538 23.5354L9.27508 23.5206C6.9363 23.4174 4.70918 23.2509 3.68306 22.9728C2.96771 22.7794 2.31575 22.4013 1.79249 21.8766C1.26923 21.3519 0.893052 20.6988 0.701636 19.9829C0.467757 19.1043 0.311838 17.9054 0.206488 16.7002L0.189631 16.479L0.172775 16.2598C0.068789 14.8321 0.0111669 13.4014 0 11.97L0 11.7108C0.00421403 11.2578 0.0210702 9.69227 0.134849 7.96452L0.149598 7.7475L0.155919 7.63793L0.172775 7.4188L0.21913 6.87098L0.2402 6.65185C0.341337 5.55831 0.490935 4.49637 0.703743 3.69781C0.894836 2.98153 1.27087 2.32806 1.79415 1.80294C2.31743 1.27781 2.96956 0.899469 3.68517 0.705851C4.71129 0.431939 6.9384 0.263377 9.27719 0.158026L9.63538 0.143277L9.99779 0.130635L10.179 0.124314L10.5393 0.109565C12.5446 0.0450369 14.5506 0.00921369 16.5569 0.00210711H16.9636V0ZM13.4849 6.76352V16.9151L22.2438 11.8414L13.4849 6.76352Z" fill="#14445D"/>
</g>
</svg>
