<svg width="32" height="32" viewBox="0 0 32 32" fill="none" xmlns="http://www.w3.org/2000/svg">
<path d="M14.6668 5.33333C14.6668 6.06971 15.2638 6.66667 16.0002 6.66667C16.7365 6.66667 17.3335 6.06971 17.3335 5.33333C17.3335 4.59695 16.7365 4 16.0002 4C15.2638 4 14.6668 4.59695 14.6668 5.33333Z" stroke="#14445D" stroke-width="2"/>
<path d="M14.6668 15.9998C14.6668 16.7362 15.2638 17.3332 16.0002 17.3332C16.7365 17.3332 17.3335 16.7362 17.3335 15.9998C17.3335 15.2635 16.7365 14.6665 16.0002 14.6665C15.2638 14.6665 14.6668 15.2635 14.6668 15.9998Z" stroke="#14445D" stroke-width="2"/>
<path d="M14.6668 26.6668C14.6668 27.4032 15.2638 28.0002 16.0002 28.0002C16.7365 28.0002 17.3335 27.4032 17.3335 26.6668C17.3335 25.9304 16.7365 25.3335 16.0002 25.3335C15.2638 25.3335 14.6668 25.9304 14.6668 26.6668Z" stroke="#14445D" stroke-width="2"/>
</svg>
