<svg width="37" height="30" viewBox="0 0 37 30" fill="none" xmlns="http://www.w3.org/2000/svg">
<g opacity="0.56">
<path d="M36.706 3.53953C35.3562 4.13766 33.9061 4.5418 32.3817 4.72448C33.9546 3.78329 35.1314 2.30198 35.6924 0.556941C34.2146 1.43473 32.5972 2.05259 30.9106 2.38367C29.7763 1.17264 28.274 0.369945 26.6369 0.100215C24.9997 -0.169514 23.3193 0.108812 21.8565 0.891981C20.3937 1.67515 19.2304 2.91934 18.5472 4.4314C17.864 5.94345 17.6992 7.63876 18.0782 9.25413C15.0838 9.10378 12.1544 8.32548 9.48029 6.96975C6.80615 5.61402 4.44695 3.71114 2.55581 1.38463C1.90918 2.50007 1.53736 3.79333 1.53736 5.17065C1.53664 6.41056 1.84198 7.63147 2.42629 8.72507C3.01059 9.81867 3.8558 10.7511 4.88691 11.4397C3.69109 11.4017 2.52165 11.0786 1.47593 10.4973V10.5943C1.47581 12.3333 2.07735 14.0188 3.17849 15.3648C4.27962 16.7108 5.81252 17.6343 7.51708 17.9788C6.40776 18.279 5.24472 18.3232 4.11581 18.1081C4.59673 19.6044 5.53354 20.9129 6.79507 21.8504C8.0566 22.7878 9.5797 23.3073 11.1511 23.3361C8.48353 25.4303 5.18903 26.5662 1.79763 26.5612C1.19688 26.5614 0.59664 26.5263 0 26.4561C3.44246 28.6695 7.44974 29.8442 11.5424 29.8396C25.3964 29.8396 32.9701 18.3652 32.9701 8.41351C32.9701 8.09019 32.962 7.76364 32.9475 7.44033C34.4206 6.37496 35.6923 5.05571 36.7028 3.54438L36.706 3.53953Z" fill="#14445D"/>
</g>
</svg>
