<svg width="40" height="40" viewBox="0 0 40 40" fill="none" xmlns="http://www.w3.org/2000/svg">
<path d="M36.2918 25.7175L27.7164 21.6269L24.0902 19.897C25.6738 18.8993 26.9601 17.3595 27.8018 15.5047C28.5038 13.9585 28.867 12.28 28.8669 10.5818C28.8669 9.58136 28.7081 8.63127 28.4869 7.71459C27.4081 3.27246 23.939 0 19.7745 0C15.6889 0 12.2724 3.15582 11.1268 7.47146C10.8624 8.46152 10.6806 9.491 10.6806 10.5818C10.6806 12.476 11.123 14.242 11.8749 15.778C12.7439 17.5599 14.0324 19.0291 15.6007 19.9737L12.1279 21.5908L3.27426 25.7142C2.50543 26.0745 2 26.9419 2 27.9106V37.6387C2 38.9426 2.90847 39.9995 4.02995 39.9995H17.1795V32.551C17.1813 32.4742 17.2038 32.3992 17.2446 32.3341L17.2392 32.3309L19.3929 28.6006L19.3983 28.6039C19.475 28.4725 19.6114 28.3794 19.7745 28.3794C19.9377 28.3794 20.0741 28.4719 20.1507 28.6039L20.1529 28.6022L20.1726 28.6367C20.1754 28.6422 20.1792 28.6466 20.1814 28.6521L22.3066 32.3325L22.3039 32.3341C22.3448 32.3994 22.3673 32.4745 22.3691 32.5515V40H35.5186C36.6401 40 37.5491 38.9431 37.5491 37.6393V27.9106C37.5507 26.9452 37.0535 26.086 36.2918 25.7175ZM22.3056 23.2232L22.311 23.2265L20.1568 26.9567L20.1513 26.9534C20.1139 27.0206 20.0594 27.0767 19.9934 27.1161C19.9273 27.1554 19.852 27.1766 19.7751 27.1774C19.6982 27.1766 19.6229 27.1554 19.5568 27.1161C19.4908 27.0767 19.4363 27.0206 19.3989 26.9534L19.3962 26.9551L19.3742 26.9173C19.3726 26.9134 19.3693 26.9102 19.3677 26.9063L17.2424 23.2248L17.2446 23.2232C17.2038 23.1579 17.1813 23.0828 17.1795 23.0058C17.1795 22.7621 17.3772 22.5644 17.6208 22.5644H21.9283C22.1719 22.5644 22.3696 22.7621 22.3696 23.0058C22.3687 23.0828 22.3466 23.158 22.3056 23.2232Z" fill="#FA8A00"/>
</svg>
