<svg width="32" height="32" viewBox="0 0 32 32" fill="none" xmlns="http://www.w3.org/2000/svg">
<path fill-rule="evenodd" clip-rule="evenodd" d="M16.0002 1.3335C7.90016 1.3335 1.3335 7.90016 1.3335 16.0002C1.3335 24.1002 7.90016 30.6668 16.0002 30.6668C24.1002 30.6668 30.6668 24.1002 30.6668 16.0002C30.6668 7.90016 24.1002 1.3335 16.0002 1.3335ZM22.3575 13.5202C22.4746 13.3864 22.5637 13.2305 22.6196 13.0617C22.6755 12.893 22.6972 12.7147 22.6832 12.5375C22.6692 12.3602 22.6199 12.1876 22.5383 12.0297C22.4566 11.8718 22.3441 11.7318 22.2076 11.618C22.071 11.5041 21.913 11.4188 21.743 11.3669C21.5729 11.315 21.3942 11.2977 21.2173 11.3159C21.0405 11.3342 20.8691 11.3876 20.7132 11.473C20.5572 11.5585 20.42 11.6742 20.3095 11.8135L14.5762 18.6922L11.6095 15.7242C11.358 15.4813 11.0212 15.3469 10.6716 15.3499C10.322 15.353 9.98761 15.4932 9.7404 15.7404C9.49319 15.9876 9.35297 16.322 9.34993 16.6716C9.34689 17.0212 9.48129 17.358 9.72416 17.6095L13.7242 21.6095C13.8552 21.7404 14.012 21.8426 14.1847 21.9096C14.3574 21.9765 14.5422 22.0068 14.7272 21.9984C14.9122 21.99 15.0935 21.9431 15.2594 21.8608C15.4253 21.7784 15.5722 21.6624 15.6908 21.5202L22.3575 13.5202Z" fill="#25B99E"/>
</svg>
