<svg width="32" height="32" viewBox="0 0 32 32" fill="none" xmlns="http://www.w3.org/2000/svg">
<path d="M16 2C19.713 2 23.274 3.475 25.8995 6.1005C28.525 8.72601 30 12.287 30 16C30 19.713 28.525 23.274 25.8995 25.8995C23.274 28.525 19.713 30 16 30C12.287 30 8.72601 28.525 6.1005 25.8995C3.475 23.274 2 19.713 2 16C2 12.287 3.475 8.72601 6.1005 6.1005C8.72601 3.475 12.287 2 16 2ZM16 14.302L12.748 11.05C12.5228 10.8248 12.2174 10.6983 11.899 10.6983C11.5806 10.6983 11.2752 10.8248 11.05 11.05C10.8248 11.2752 10.6983 11.5806 10.6983 11.899C10.6983 12.2174 10.8248 12.5228 11.05 12.748L14.302 16L11.05 19.252C10.9385 19.3635 10.8501 19.4959 10.7897 19.6415C10.7294 19.7872 10.6983 19.9433 10.6983 20.101C10.6983 20.2587 10.7294 20.4148 10.7897 20.5605C10.8501 20.7061 10.9385 20.8385 11.05 20.95C11.1615 21.0615 11.2939 21.1499 11.4395 21.2103C11.5852 21.2706 11.7413 21.3017 11.899 21.3017C12.0567 21.3017 12.2128 21.2706 12.3585 21.2103C12.5041 21.1499 12.6365 21.0615 12.748 20.95L16 17.698L19.252 20.95C19.3635 21.0615 19.4959 21.1499 19.6415 21.2103C19.7872 21.2706 19.9433 21.3017 20.101 21.3017C20.2587 21.3017 20.4148 21.2706 20.5605 21.2103C20.7061 21.1499 20.8385 21.0615 20.95 20.95C21.0615 20.8385 21.1499 20.7061 21.2103 20.5605C21.2706 20.4148 21.3017 20.2587 21.3017 20.101C21.3017 19.9433 21.2706 19.7872 21.2103 19.6415C21.1499 19.4959 21.0615 19.3635 20.95 19.252L17.698 16L20.95 12.748C21.0615 12.6365 21.1499 12.5041 21.2103 12.3585C21.2706 12.2128 21.3017 12.0567 21.3017 11.899C21.3017 11.7413 21.2706 11.5852 21.2103 11.4395C21.1499 11.2939 21.0615 11.1615 20.95 11.05C20.8385 10.9385 20.7061 10.8501 20.5605 10.7897C20.4148 10.7294 20.2587 10.6983 20.101 10.6983C19.9433 10.6983 19.7872 10.7294 19.6415 10.7897C19.4959 10.8501 19.3635 10.9385 19.252 11.05L16 14.302Z" fill="#FA8072"/>
</svg>
