<svg width="40" height="40" viewBox="0 0 40 40" fill="none" xmlns="http://www.w3.org/2000/svg">
<path d="M4.68884 25.7777L2.57773 34.8888C2.50491 35.2219 2.5074 35.567 2.58504 35.899C2.66268 36.231 2.81349 36.5414 3.02647 36.8076C3.23945 37.0739 3.50921 37.2891 3.81604 37.4377C4.12287 37.5864 4.45903 37.6646 4.79996 37.6666C4.95881 37.6827 5.11888 37.6827 5.27773 37.6666L14.4444 35.5555L32.0444 18.0222L22.2222 8.22217L4.68884 25.7777Z" fill="#FA8A00"/>
<path d="M37.5777 9.24463L31.0222 2.68907C30.5912 2.26026 30.0079 2.01953 29.4 2.01953C28.792 2.01953 28.2087 2.26026 27.7777 2.68907L24.1333 6.33352L33.9444 16.1446L37.5889 12.5002C37.8021 12.2858 37.971 12.0315 38.0859 11.7518C38.2008 11.4721 38.2594 11.1725 38.2584 10.8701C38.2574 10.5677 38.1967 10.2685 38.0799 9.98959C37.9631 9.71067 37.7925 9.45752 37.5777 9.24463Z" fill="#FA8A00"/>
</svg>
