<svg width="32" height="32" viewBox="0 0 32 32" fill="none" xmlns="http://www.w3.org/2000/svg">
<path d="M23.1111 1.77778H8.88886C8.41737 1.77778 7.96518 1.96508 7.63178 2.29848C7.29839 2.63188 7.11108 3.08406 7.11108 3.55556V28.3822C7.1108 28.7346 7.21523 29.0791 7.41111 29.372C7.607 29.6648 7.88549 29.8929 8.21125 30.0272C8.537 30.1615 8.89532 30.196 9.2407 30.1263C9.58609 30.0565 9.90296 29.8857 10.1511 29.6356L15.9644 23.84L21.8577 29.7067C22.1069 29.9543 22.4238 30.1226 22.7685 30.1903C23.1132 30.258 23.4702 30.2221 23.7945 30.087C24.1188 29.952 24.3958 29.7239 24.5906 29.4316C24.7853 29.1392 24.8891 28.7957 24.8889 28.4444V3.55556C24.8889 3.08406 24.7016 2.63188 24.3682 2.29848C24.0348 1.96508 23.5826 1.77778 23.1111 1.77778Z" fill="#14445D"/>
</svg>
