<svg width="48" height="48" viewBox="0 0 48 48" fill="none" xmlns="http://www.w3.org/2000/svg">
<path d="M24 21.4333C22.5767 21.4333 21.4334 22.5767 21.4334 24C21.4334 25.4233 22.5767 26.5667 24 26.5667C25.4234 26.5667 26.5667 25.4233 26.5667 24C26.5667 22.5767 25.4234 21.4333 24 21.4333ZM24 0.666656C11.12 0.666656 0.666687 11.12 0.666687 24C0.666687 36.88 11.12 47.3333 24 47.3333C36.88 47.3333 47.3334 36.88 47.3334 24C47.3334 11.12 36.88 0.666656 24 0.666656ZM29.11 29.11L10 38L18.89 18.89L38 9.99999L29.11 29.11Z" fill="#FA8A00"/>
</svg>
