<svg width="40" height="40" viewBox="0 0 40 40" fill="none" xmlns="http://www.w3.org/2000/svg">
<path d="M7.62503 7.625C8.09385 7.15632 8.72962 6.89304 9.39253 6.89304C10.0554 6.89304 10.6912 7.15632 11.16 7.625L20 16.465L28.84 7.625C29.3115 7.16961 29.943 6.91762 30.5985 6.92332C31.254 6.92901 31.8811 7.19194 32.3446 7.65546C32.8081 8.11898 33.071 8.74601 33.0767 9.4015C33.0824 10.057 32.8304 10.6885 32.375 11.16L23.535 20L32.375 28.84C32.8304 29.3115 33.0824 29.943 33.0767 30.5985C33.071 31.254 32.8081 31.881 32.3446 32.3446C31.8811 32.8081 31.254 33.071 30.5985 33.0767C29.943 33.0824 29.3115 32.8304 28.84 32.375L20 23.535L11.16 32.375C10.6885 32.8304 10.057 33.0824 9.40153 33.0767C8.74604 33.071 8.11901 32.8081 7.65549 32.3446C7.19197 31.881 6.92904 31.254 6.92335 30.5985C6.91765 29.943 7.16964 29.3115 7.62503 28.84L16.465 20L7.62503 11.16C7.15635 10.6912 6.89307 10.0554 6.89307 9.3925C6.89307 8.72959 7.15635 8.09382 7.62503 7.625Z" fill="#14445D"/>
</svg>
