<svg width="32" height="32" viewBox="0 0 32 32" fill="none" xmlns="http://www.w3.org/2000/svg">
<g clip-path="url(#clip0_108_4176)">
<path d="M18.586 0H8C6.93913 0 5.92172 0.421427 5.17157 1.17157C4.42143 1.92172 4 2.93913 4 4V28C4 29.0609 4.42143 30.0783 5.17157 30.8284C5.92172 31.5786 6.93913 32 8 32H24C25.0609 32 26.0783 31.5786 26.8284 30.8284C27.5786 30.0783 28 29.0609 28 28V9.414C27.9999 8.88361 27.7891 8.37499 27.414 8L20 0.586C19.625 0.210901 19.1164 0.000113275 18.586 0V0ZM19 7V3L25 9H21C20.4696 9 19.9609 8.78929 19.5858 8.41421C19.2107 8.03914 19 7.53043 19 7ZM12.708 19.708C12.615 19.801 12.5046 19.8747 12.3832 19.925C12.2617 19.9754 12.1315 20.0013 12 20.0013C11.8685 20.0013 11.7383 19.9754 11.6168 19.925C11.4954 19.8747 11.385 19.801 11.292 19.708C11.199 19.615 11.1253 19.5046 11.075 19.3832C11.0246 19.2617 10.9987 19.1315 10.9987 19C10.9987 18.8685 11.0246 18.7383 11.075 18.6168C11.1253 18.4954 11.199 18.385 11.292 18.292L15.292 14.292C15.3849 14.1989 15.4952 14.125 15.6167 14.0746C15.7382 14.0242 15.8685 13.9982 16 13.9982C16.1315 13.9982 16.2618 14.0242 16.3833 14.0746C16.5048 14.125 16.6151 14.1989 16.708 14.292L20.708 18.292C20.801 18.385 20.8747 18.4954 20.925 18.6168C20.9754 18.7383 21.0013 18.8685 21.0013 19C21.0013 19.1315 20.9754 19.2617 20.925 19.3832C20.8747 19.5046 20.801 19.615 20.708 19.708C20.615 19.801 20.5046 19.8747 20.3832 19.925C20.2617 19.9754 20.1315 20.0013 20 20.0013C19.8685 20.0013 19.7383 19.9754 19.6168 19.925C19.4954 19.8747 19.385 19.801 19.292 19.708L17 17.414V25C17 25.2652 16.8946 25.5196 16.7071 25.7071C16.5196 25.8946 16.2652 26 16 26C15.7348 26 15.4804 25.8946 15.2929 25.7071C15.1054 25.5196 15 25.2652 15 25V17.414L12.708 19.708Z" fill="#14445D"/>
</g>
<defs>
<clipPath id="clip0_108_4176">
<rect width="32" height="32" fill="white"/>
</clipPath>
</defs>
</svg>
