<svg width="26" height="32" viewBox="0 0 26 32" fill="none" xmlns="http://www.w3.org/2000/svg">
<path d="M1.6 0H24C24.4243 0 24.8313 0.168571 25.1314 0.468629C25.4314 0.768687 25.6 1.17565 25.6 1.6V30.4C25.6 30.8243 25.4314 31.2313 25.1314 31.5314C24.8313 31.8314 24.4243 32 24 32H1.6C1.17565 32 0.768688 31.8314 0.468629 31.5314C0.168571 31.2313 0 30.8243 0 30.4V1.6C0 1.17565 0.168571 0.768687 0.468629 0.468629C0.768688 0.168571 1.17565 0 1.6 0ZM8 14.4V9.6L0 16L8 22.4V17.6H17.6V14.4H8Z" fill="#FA8072"/>
</svg>
