<svg width="26" height="26" viewBox="0 0 26 26" fill="none" xmlns="http://www.w3.org/2000/svg">
<g clip-path="url(#clip0_1825_2027)">
<path d="M13 26C9.55219 26 6.24558 24.6304 3.80761 22.1924C1.36964 19.7544 0 16.4478 0 13C0 9.55219 1.36964 6.24558 3.80761 3.80761C6.24558 1.36964 9.55219 0 13 0C16.4478 0 19.7544 1.36964 22.1924 3.80761C24.6304 6.24558 26 9.55219 26 13C26 16.4478 24.6304 19.7544 22.1924 22.1924C19.7544 24.6304 16.4478 26 13 26ZM14.3 19.5H15.6C16.6343 19.5 17.6263 19.0891 18.3577 18.3577C19.0891 17.6263 19.5 16.6343 19.5 15.6C19.5 14.5657 19.0891 13.5737 18.3577 12.8423C17.6263 12.1109 16.6343 11.7 15.6 11.7H10.387C10.0422 11.7 9.71156 11.563 9.46776 11.3192C9.22396 11.0754 9.087 10.7448 9.087 10.4C9.087 10.0552 9.22396 9.72456 9.46776 9.48076C9.71156 9.23696 10.0422 9.1 10.387 9.1H18.2V6.5H14.3V3.9H11.7V6.5H10.4C9.36566 6.5 8.37368 6.91089 7.64228 7.64228C6.91089 8.37368 6.5 9.36566 6.5 10.4C6.5 11.4343 6.91089 12.4263 7.64228 13.1577C8.37368 13.8891 9.36566 14.3 10.4 14.3H15.6C15.9448 14.3 16.2754 14.437 16.5192 14.6808C16.763 14.9246 16.9 15.2552 16.9 15.6C16.9 15.9448 16.763 16.2754 16.5192 16.5192C16.2754 16.763 15.9448 16.9 15.6 16.9H7.8V19.5H11.7V22.1H14.3V19.5Z" fill="#FA8A00"/>
</g>
<defs>
<clipPath id="clip0_1825_2027">
<rect width="26" height="26" fill="white"/>
</clipPath>
</defs>
</svg>
